PathFileType	4	(X/Y/Z)	C:/Users/opensim2020/Desktop/walking_exp_matlab/subject01_walking05_straight_03.trc	
DataRate	CameraRate	NumFrames	NumMarkers	Units	OrigDataRate	OrigDataStartFrame	OrigNumFrames	
100.00	100.00	5	43	mm	100.00	2218	223	
Frame#	Time	LFHD			RFHD			LBHD			RBHD			C7			T10			CLAV			STRN			RBAK			LSHO			LUPA			LELB			LFRM			LWRA			LWRB			LFIN			RSHO			RUPA			RELB			RFRM			RWRA			RWRB			RFIN			LASI			RASI			LPSI			RPSI			LTHI			LKNE			LTIB			LANK			LHEE			LTOE			RTHI			RKNE			RTIB			RANK			RHEE			RTOE			*39			*40			*41			*42			
		X1	Y1	Z1	X2	Y2	Z2	X3	Y3	Z3	X4	Y4	Z4	X5	Y5	Z5	X6	Y6	Z6	X7	Y7	Z7	X8	Y8	Z8	X9	Y9	Z9	X10	Y10	Z10	X11	Y11	Z11	X12	Y12	Z12	X13	Y13	Z13	X14	Y14	Z14	X15	Y15	Z15	X16	Y16	Z16	X17	Y17	Z17	X18	Y18	Z18	X19	Y19	Z19	X20	Y20	Z20	X21	Y21	Z21	X22	Y22	Z22	X23	Y23	Z23	X24	Y24	Z24	X25	Y25	Z25	X26	Y26	Z26	X27	Y27	Z27	X28	Y28	Z28	X29	Y29	Z29	X30	Y30	Z30	X31	Y31	Z31	X32	Y32	Z32	X33	Y33	Z33	X34	Y34	Z34	X35	Y35	Z35	X36	Y36	Z36	X37	Y37	Z37	X38	Y38	Z38	X39	Y39	Z39	X40	Y40	Z40	X41	Y41	Z41	X42	Y42	Z42	X43	Y43	Z43	

140	1.390	-1065.68164	87.85839	1668.48962	-953.19659	109.99544	1675.70032	-1048.68604	-21.73961	1610.29688	-929.26147	-1.29604	1616.37341	-1009.43835	-41.71200	1422.81775	-1006.96350	-68.50684	1128.65698	-1015.72803	103.61147	1358.84363	-1030.17969	150.51707	1205.54248	-937.97144	-89.65262	1221.91589	-1172.69067	34.71177	1391.95215	-1264.73633	25.33641	1212.36023	-1282.31262	47.49863	1060.87891	-1308.14685	136.57146	985.81281	-1294.02478	263.66263	932.33447	-1315.20129	220.18105	897.09717	-1328.87122	296.57758	866.18353	-861.93420	40.62975	1380.54688	-770.04449	-26.36099	1178.73010	-771.90991	-31.83654	1055.82813	-740.69873	-22.33558	937.28223	-756.84784	40.01436	809.14825	-719.18756	-4.02837	817.50403	-722.92828	18.89582	733.66302	-1132.60107	95.26237	919.98993	-917.55750	119.95486	929.59930	-1057.39111	-83.40726	936.84875	-912.45569	-67.05383	940.92023	-1173.50842	9.41424	590.64618	-1160.60852	-27.98002	458.64261	-1169.12512	-153.30217	314.54700	-1117.04468	-277.43915	132.37955	-1064.50830	-329.64075	130.24364	-1113.62109	-167.89078	32.99684	-849.84259	129.70689	605.23798	-879.75433	182.45712	457.27988	-869.59338	167.60800	281.29797	-916.39136	184.79140	76.27343	-967.93964	139.90804	35.68805	-919.27435	326.09332	43.60494	-975.25360	92.27619	1707.70532	-3102.00488	1973.10986	1023.46106	-3140.63452	2012.50891	1022.00781			 
141	1.400	-1063.12354	96.94131	1669.48193	-950.39825	119.35210	1676.55725	-1045.94482	-12.53447	1611.20203	-926.59705	8.13994	1617.09204	-1007.07208	-32.68278	1423.52478	-1005.62231	-58.86234	1129.40137	-1013.62762	112.84506	1360.06409	-1028.51025	159.98718	1206.76514	-935.99139	-80.02364	1222.43689	-1170.43445	43.92165	1393.52502	-1262.30566	32.60528	1213.72375	-1279.86707	53.49435	1062.30054	-1305.82776	141.45543	985.92474	-1291.89246	267.64526	930.33722	-1313.01135	223.50500	895.79303	-1326.56421	299.35699	863.33435	-859.63672	50.03592	1381.36707	-768.12555	-15.57387	1178.74780	-770.07513	-20.03775	1055.81189	-738.93884	-9.91809	937.44958	-755.32574	53.04657	809.59619	-717.51080	9.17932	817.80304	-721.28571	32.35989	734.04138	-1130.62769	105.72927	920.88495	-915.62000	129.81659	931.14294	-1056.87842	-72.95927	937.83362	-912.07697	-57.07259	942.44037	-1172.70642	23.92349	590.59558	-1161.06555	-11.95618	458.33597	-1169.42786	-141.68456	317.73785	-1117.64319	-270.85016	139.12100	-1064.47327	-321.74203	139.68489	-1113.38184	-167.62799	33.05959	-848.76746	138.91014	605.94006	-878.68738	189.29295	456.87454	-868.51672	171.84816	280.87912	-916.41010	185.56906	75.82745	-967.69403	140.06197	35.76753	-919.97314	326.73367	42.56850	-972.46582	101.37322	1708.52893	-3101.92627	1973.05835	1023.43304	-3140.69800	2012.54639	1021.97375			 
142	1.410	-1060.60632	106.08398	1670.45361	-947.91022	128.70584	1677.40259	-1043.37756	-3.34761	1612.14673	-924.02936	17.41504	1617.84912	-1004.70148	-23.59480	1424.35754	-1004.15680	-49.37155	1130.26465	-1011.62622	121.92622	1361.30249	-1026.93250	169.37683	1208.00439	-934.02167	-70.45238	1223.11816	-1168.22437	52.97457	1395.09900	-1260.06885	39.99089	1215.25269	-1277.42029	59.28436	1063.77295	-1303.39026	146.02357	986.01868	-1289.74109	271.32336	928.22974	-1310.51013	226.53865	894.32568	-1324.46936	301.73798	860.59265	-857.57257	59.45487	1382.02588	-766.30841	-4.64880	1178.87134	-768.18237	-8.10123	1056.09094	-737.16504	2.78769	937.83240	-753.78772	66.43158	810.36145	-715.83545	22.63102	818.29114	-719.69104	46.26764	734.59381	-1128.48975	116.11843	921.96912	-913.42560	139.59506	932.77460	-1056.18347	-62.62651	938.83313	-911.17993	-47.41665	943.92444	-1172.37598	39.03688	590.46570	-1162.40002	4.68001	458.05884	-1169.96875	-129.36372	321.31009	-1118.47351	-263.03363	146.22147	-1064.64990	-312.43887	149.83614	-1112.97961	-167.32693	33.18930	-847.67834	147.97548	606.45697	-877.36810	195.23308	456.62134	-867.85773	175.50601	280.89648	-916.64252	186.11618	75.71576	-967.76532	140.13097	35.89247	-920.87366	327.30484	41.81658	-969.80469	110.59630	1709.31970	-3101.93823	1973.12085	1023.31842	-3140.69775	2012.64148	1022.10089			 
143	1.420	-1058.06116	115.28716	1671.40491	-945.44812	137.90239	1678.06653	-1040.87390	5.82526	1613.10999	-921.63861	26.63030	1618.63379	-1002.43903	-14.45556	1425.29565	-1002.61377	-39.94340	1131.19507	-1009.77557	131.00497	1362.45337	-1025.39636	178.46556	1209.16699	-931.82025	-60.89522	1223.90979	-1166.06897	61.83022	1396.66467	-1258.06799	47.43676	1216.89099	-1275.08984	64.85368	1065.21790	-1301.20081	150.34305	986.04254	-1287.62097	274.67624	925.98914	-1308.15076	229.23300	892.86755	-1322.32629	303.73901	857.70679	-855.60193	68.84046	1382.86316	-764.42383	6.37301	1179.17737	-766.24561	3.79868	1056.58679	-735.37512	15.65064	938.38464	-752.14319	80.09500	811.33264	-714.23956	36.35008	819.05182	-718.06506	60.31388	735.35730	-1126.22314	126.30161	923.11877	-911.13263	149.35342	934.39496	-1055.25952	-52.44247	939.73669	-909.98560	-38.64757	945.58466	-1172.70667	54.51358	590.26068	-1163.59583	21.98600	457.79999	-1170.77979	-116.05725	325.10464	-1119.80676	-253.97044	153.50587	-1064.99170	-301.78281	159.78992	-1112.30530	-167.00179	33.31817	-846.29181	156.44789	607.05206	-875.77441	200.48912	456.61102	-867.41656	178.68823	280.68854	-916.69720	186.45427	75.87660	-967.50177	140.17450	35.95202	-921.27783	327.70224	41.19915	-967.23431	119.90311	1710.15259	-3101.95435	1973.10449	1023.25836	-3140.65918	2012.58838	1022.04828			 
144	1.430	-1055.53296	124.52384	1672.23059	-942.99591	147.08324	1678.78186	-1038.66211	14.97716	1614.06287	-919.36969	35.74717	1619.34021	-1000.09375	-5.21205	1426.08093	-1000.99567	-30.60442	1132.11365	-1008.03278	140.05447	1363.57532	-1023.93402	187.70039	1210.21899	-929.49957	-51.55908	1224.88013	-1164.03906	70.58769	1398.16492	-1256.38623	54.91821	1218.49902	-1272.80530	70.28761	1066.60999	-1298.92139	154.44072	985.92108	-1285.49963	277.82443	923.60907	-1305.94189	231.64568	891.34790	-1320.11523	305.53906	854.66406	-853.68237	78.45865	1383.82971	-762.38672	17.38480	1179.64819	-764.28699	15.73171	1057.07922	-733.58472	28.65508	939.01294	-750.51471	93.86294	812.40881	-712.34924	50.23215	819.79388	-716.39264	75.02766	736.28314	-1123.94946	136.12498	924.26111	-909.09448	158.64551	935.83960	-1054.03137	-42.58261	940.50629	-908.70709	-28.91445	946.64911	-1172.89026	70.31393	589.98285	-1164.84473	39.38243	457.51999	-1171.66553	-101.79797	328.98795	-1121.51257	-243.74796	160.62151	-1065.93909	-289.93097	169.40425	-1111.95691	-165.97423	33.55614	-844.89935	163.59784	607.69281	-874.81409	205.29739	456.24097	-866.97113	181.19783	280.56339	-916.63745	186.63205	75.82657	-967.44476	140.11465	35.92231	-921.26550	328.01843	40.82772	-964.99084	129.02922	1710.88696	-3102.01929	1973.10034	1023.34265	-3140.71484	2012.47290	1021.90326			 
